<?xml version="1.0" standalone="no"?>
<!DOCTYPE svg PUBLIC "-//W3C//DTD SVG 1.1//EN" "http://www.w3.org/Graphics/SVG/1.1/DTD/svg11.dtd">
<svg xmlns="http://www.w3.org/2000/svg" width="35.91400146484375" height="25.18440055847168" viewBox="0 0 35.914 25.1844">
  <g id="Camada_2" data-name="Camada 2">
    <g id="Camada_1-2" data-name="Camada 1">
      <g>
        <path d="M2.6933,10.8085A.2467.2467,0,1,1,2.2,10.83c0-.0057-.0959-1.9755-.0709-3.0087.017-.6933-.2656-.66-.2911-.6551l0,.0006c-.004.0006-1.4145.288-1.4576-.9139-.0329-.91.8005-1.5148,1.4491-1.9851l.0147-.01c.0887-.0644.174-.1267.2648-.1965a.77.77,0,0,0,.3021-.8345A.2576.2576,0,0,1,2.4,3.1632,6.0077,6.0077,0,0,1,2.38,2.105a.8825.8825,0,0,1,.5442-.6225l.0012-.0009a3.5021,3.5021,0,0,1,1.08-.3248c.3586-.0394.5063.3124.5656.665.0567-.0751.1235-.1636.2035-.2679a7.2187,7.2187,0,0,1,.9178-1.04A1.8185,1.8185,0,0,1,6.7987.0017a3.1914,3.1914,0,0,1,1.664.6094L8.4746.62c.2522.1817,4.1731,3.0078,4.9923,3.882a1.594,1.594,0,0,1,.4309.756.9658.9658,0,0,1-.0374.5383,1.09,1.09,0,0,1-.2823.415,1.6463,1.6463,0,0,1-.78.3887.3247.3247,0,0,0-.2591.46.2349.2349,0,0,1,.0167.0825l.31,2.78a1.6033,1.6033,0,0,1-1.6628,2.0389l-.0193-.0011a3.9005,3.9005,0,0,1-1.9675-.7886,4.9709,4.9709,0,0,1-1.6792.8555q-.1.0289-.2141.0572a3.9264,3.9264,0,0,1-2.2986-.068,2.69,2.69,0,0,1-.5179-.2631A20.1607,20.1607,0,0,1,1.89,13.5419a104.0442,104.0442,0,0,1,24.6268-1.2435c.7319.1272.4949.8643-.0734.8121A92.7771,92.7771,0,0,0,.45,14.3164a.2473.2473,0,0,1-.1644-.4627,23.5258,23.5258,0,0,0,3.8333-2.4125,2.9665,2.9665,0,0,1-.7495-1.31c-.015-.0519-.03-.1083-.0454-.17A4.6343,4.6343,0,0,1,3.1845,8.729a3.32,3.32,0,0,1,.5046-1.7306,1.9808,1.9808,0,0,1,1.1495-.8762A1.4457,1.4457,0,0,1,5.2235,6.08a1.3784,1.3784,0,0,1,.5669.1358,1.42,1.42,0,0,1,.6531.6738,2.3205,2.3205,0,0,1,.2078,1.0851,4.8226,4.8226,0,0,1-.5335,1.9389,5.3266,5.3266,0,0,1-1.2194,1.5,2.14,2.14,0,0,0,.3013.1414,3.4373,3.4373,0,0,0,2.0064.05q.0918-.0225.1919-.0518a4.5041,4.5041,0,0,0,1.438-.7115,4.3519,4.3519,0,0,1-.7671-1.0225A3.8246,3.8246,0,0,1,7.5836,7.645a2.2385,2.2385,0,0,1,.2087-.7438,1.7905,1.7905,0,0,1,.712-.8206.9577.9577,0,0,1,.711-.0916,1.2626,1.2626,0,0,1,.6236.413A3.2714,3.2714,0,0,1,10.5,8.1073a3.1416,3.1416,0,0,1-.6213,2.3956,3.5653,3.5653,0,0,1-.288.3319,3.388,3.388,0,0,0,1.64.6324c.1321.0017,1.3516-.0209,1.1467-1.4813l-.31-2.7771A.7793.7793,0,0,1,12.699,6.116a1.1363,1.1363,0,0,0,.5406-.2648.6031.6031,0,0,0,.1568-.2262.4833.4833,0,0,0,.0175-.2681,1.1212,1.1212,0,0,0-.3072-.5165c-.7918-.845-4.6769-3.6448-4.92-3.82l-.0134-.0087A2.6785,2.6785,0,0,0,6.8225.4949a1.3532,1.3532,0,0,0-.8044.3892,6.8756,6.8756,0,0,0-.85.97c-.3019.394-.48.6063-.585.7206A.247.247,0,0,1,4.11,2.46c0-.0023.0552-.8241-.0513-.8124a2.95,2.95,0,0,0-.9071.2735c-.1545.08-.2713.1653-.2792.2378a5.3717,5.3717,0,0,0,.0178.9426,1.2724,1.2724,0,0,1-.479,1.3518c-.0749.0578-.173.129-.2767.2041l-.0136.0108c-.5553.4025-1.2688.92-1.2456,1.5672.0224.6174.866.4465.8683.4462l0,.0006.0017,0c.0028-.0006.9119-.1936.879,1.1531-.0252,1.0384.0683,2.9679.0686,2.9736ZM6.1374,3.8163a.6664.6664,0,0,0-1.02.0161.9325.9325,0,0,0,.019,1.2047.6661.6661,0,0,0,1.02-.0158.9329.9329,0,0,0-.019-1.205Zm-.52-.6146a1.0642,1.0642,0,0,0-.79.38,1.31,1.31,0,0,0,.0269,1.7161,1.0458,1.0458,0,0,0,1.5914-.0253,1.31,1.31,0,0,0-.0272-1.7158,1.0653,1.0653,0,0,0-.8014-.3546ZM9.57,3.918a.5446.5446,0,0,0-.8362-.199A.8713.8713,0,0,0,8.4817,4.78a.5682.5682,0,0,0,.369.3039h0a.5684.5684,0,0,0,.4669-.1052.8338.8338,0,0,0,.3126-.485l0-.0008a.8371.8371,0,0,0-.06-.5752ZM9.29,3.24a.9482.9482,0,0,0-.7815.1686A1.2511,1.2511,0,0,0,8.14,4.9555a.95.95,0,0,0,.6134.5009l.0173.004a.95.95,0,0,0,.773-.17,1.2208,1.2208,0,0,0,.4592-.7l.004-.0164a1.2194,1.2194,0,0,0-.095-.8309A.949.949,0,0,0,9.29,3.24ZM8.5035,9.5839a3.8524,3.8524,0,0,0,.7067.932,3.1274,3.1274,0,0,0,.2746-.3132,2.6631,2.6631,0,0,0,.5247-2.03,2.79,2.79,0,0,0-.5431-1.4451.78.78,0,0,0-.3759-.2591.4742.4742,0,0,0-.3515.0473,1.3175,1.3175,0,0,0-.5034.6038,1.74,1.74,0,0,0-.1593.58,3.3225,3.3225,0,0,0,.4272,1.8847Zm-4.66.4085a2.4623,2.4623,0,0,0,.6539,1.1251A4.9836,4.9836,0,0,0,5.6722,9.697a4.337,4.337,0,0,0,.4842-1.7376,1.829,1.829,0,0,0-.157-.8538.9313.9313,0,0,0-.4255-.4442.8854.8854,0,0,0-.3657-.0865.9422.9422,0,0,0-.2528.0275,1.49,1.49,0,0,0-.8521.6673A2.8271,2.8271,0,0,0,3.68,8.7443a4.1168,4.1168,0,0,0,.1244,1.1Q3.8213,9.9154,3.8439,9.9924Z" fill="#fff" fill-rule="evenodd"/>
        <g>
          <path d="M11.0433,15.1778h.4252a.2889.2889,0,0,1,.29.2976l-.1411,5.1038a.3086.3086,0,0,1-.3059.2977H10.886a.2889.2889,0,0,1-.29-.2977l.1412-5.1038a.3087.3087,0,0,1,.3058-.2976ZM1.2352,16.4653l-.0335,1.2084H2.3432a.1944.1944,0,0,1,.15.0692.2491.2491,0,0,1,.0595.18l-.0133.477a.2669.2669,0,0,1-.0692.1749.2.2,0,0,1-.1536.0749H1.1748l-.0332,1.2027H2.6638a.1952.1952,0,0,1,.15.0694.2486.2486,0,0,1,.0592.18l-.013.4768a.2684.2684,0,0,1-.0692.1749.2.2,0,0,1-.1539.0748H.2093a.1888.1888,0,0,1-.15-.0748A.2555.2555,0,0,1,0,20.5792l.0006-.0164.0127-.46.1072-3.8812.0133-.4824a.2535.2535,0,0,1,.0692-.1749.2061.2061,0,0,1,.1536-.0692H2.7843a.195.195,0,0,1,.15.0692.242.242,0,0,1,.0592.1749l-.0133.4824a.2537.2537,0,0,1-.0715.1693.2032.2032,0,0,1-.1513.0748Zm9.1394,2.1764-.1272,4.61a1.8444,1.8444,0,0,1-1.8032,1.9327,1.71,1.71,0,0,1-1.707-1.78,1.8423,1.8423,0,0,1,1.1951-1.6707c.4269-.1579.4164.0334.4272.2151l.0246.4164c-.0053.19.046.2149-.2531.3926a.7792.7792,0,0,0-.38.6466.7379.7379,0,0,0,.7214.7526c.3861,0,.737-.2868.7591-1.091L9.2966,20.72a1.7911,1.7911,0,0,1-.85.216A1.8632,1.8632,0,0,1,6.6428,18.95,1.9911,1.9911,0,0,1,8.5565,16.965a1.6434,1.6434,0,0,1,1.8181,1.6767Zm-1.7217-.6508a.9325.9325,0,0,0-.8652.9536.8728.8728,0,0,0,.8124.9536.9324.9324,0,0,0,.8652-.9536.8722.8722,0,0,0-.8124-.9536ZM3.618,16.8755h.4252a.2884.2884,0,0,1,.2865.2477l-.0017.2721c.3175-.4067,2.1164-.6315,2.0733.93l-.0621,2.2538a.309.309,0,0,1-.3061.2977H5.6079a.2889.2889,0,0,1-.2894-.2977l.0544-1.9774c.0184-.6662-1.061-.6747-1.08,0l-.0544,1.9774a.3091.3091,0,0,1-.3062.2977H3.5074a.2888.2888,0,0,1-.2894-.2977l.0941-3.4061a.3085.3085,0,0,1,.3059-.2976Zm9.7778,3.26a.4378.4378,0,0,1,.0989-.233l.1976-.2662a1.4977,1.4977,0,0,1,.1361-.18.1477.1477,0,0,1,.1068-.0527.258.258,0,0,1,.1123.0335,1.8264,1.8264,0,0,1,.1822.1108q.015.0111.2569.1942a.895.895,0,0,0,.6128.1607.2871.2871,0,0,0,.1948-.0748.2375.2375,0,0,0,.0742-.1693.3147.3147,0,0,0-.1168-.244.5587.5587,0,0,0-.3461-.1276h.0051a2.3014,2.3014,0,0,1-.6976-.2523.8923.8923,0,0,1-.35-.3631,1.3147,1.3147,0,0,1-.1142-.5216,1.2447,1.2447,0,0,1,.6489-1.1452,1.4427,1.4427,0,0,1,.7146-.1749,2.1881,2.1881,0,0,1,1.0389.2858,1.0466,1.0466,0,0,1,.3138.2746.2162.2162,0,0,1,.068.144.2383.2383,0,0,1-.042.1194,1.6026,1.6026,0,0,1-.136.1746L16.2012,18a.9827.9827,0,0,1-.1139.1136.1241.1241,0,0,1-.0754.0306.1911.1911,0,0,1-.0916-.0334c-.0371-.0221-.0734-.0454-.1085-.0692l-.0936-.0638a1.12,1.12,0,0,0-.6154-.244.3817.3817,0,0,0-.2622.0859.278.278,0,0,0-.1009.208.3016.3016,0,0,0,.0865.2192.4371.4371,0,0,0,.2588.1247,1.9681,1.9681,0,0,1,1.0851.4714,1.0516,1.0516,0,0,1,.3407.7988,1.2205,1.2205,0,0,1-.2106.6406,1.5163,1.5163,0,0,1-.5488.4992,1.5668,1.5668,0,0,1-.7691.1913,2.24,2.24,0,0,1-1.3691-.5215q-.2216-.1663-.2174-.3161Zm3.8608-4.9578h.4255a.289.289,0,0,1,.2894.2976l-.051,1.8485-.0006.0714c.3175-.4067,2.1163-.6315,2.0732.93l-.062,2.2538a.3091.3091,0,0,1-.3062.2977H19.2a.289.289,0,0,1-.2894-.2977l.0544-1.9774c.0185-.6662-1.061-.6747-1.08,0l-.0544,1.9774-.0006.0077,0,.0076-.0008.0074-.0009.0076h0l-.0011.0074h0l-.0011.0074h0l-.0014.0074-.0017.0073h0l-.0017.0071-.002.0071v0l-.002.0068v0l-.0026.0068h0l-.0022.0071h0l-.0085.02h0l-.0063.013h0l-.0107.019v0a.3146.3146,0,0,1-.1131.11h0l-.02.01h0l-.0133.0059h0l-.02.008h0l-.0071.0022h0l-.0071.002h0l-.0071.002h0l-.0074.0017-.0071.0017h0l-.0073.0014-.0074.0012h0l-.0074.0011h0l-.0076.0008h0l-.0074.0006-.0076.0006-.0077,0h-.4405l-.0076,0-.0077-.0006-.0074-.0006h0l-.0073-.0008h0l-.0074-.0011h0l-.0074-.0012-.0074-.0014h0l-.007-.0017-.0071-.0017h0l-.0071-.002h0l-.0068-.002h0l-.0068-.0022h0l-.0068-.0026h0l-.0065-.0025h0l-.0068-.0029h0l-.0065-.0028h0l-.0066-.0031h0l-.0062-.0031h0l-.0062-.0034h0l-.0063-.0037-.0059-.0034h0l-.006-.004-.0056-.004h0l-.0057-.0039h0l-.0057-.0043h0l-.0053-.0045h0l-.0057-.0046-.0051-.0045-.0054-.0048h0l-.0051-.0048h0l-.0048-.0049h0l-.0051-.0053h0l-.0046-.0051-.0045-.0054-.0045-.0054h0l-.0043-.0057h0l-.0039-.0057h0l-.0043-.0056-.004-.006h0l-.0036-.0059h0l-.0037-.006-.0034-.0062-.0034-.0065h0l-.0031-.0063h0l-.0032-.0065-.0028-.0065h0l-.0028-.0065-.0026-.0068-.0023-.0068h0l-.0022-.0068-.0023-.0071-.0017-.0068-.0017-.0071-.0017-.0074-.0014-.0071-.0011-.0073-.0012-.0074-.0008-.0074L16.81,20.61l-.0006-.0076v-.0074l0-.0076,0-.0077.0939-3.4061.047-1.6977a.3088.3088,0,0,1,.3059-.2976Zm-4.8215,2.08h.4255a.2885.2885,0,0,1,.2894.2977l-.0836,3.0234a.3085.3085,0,0,1-.3059.2977h-.4251a.2888.2888,0,0,1-.29-.2977l.0834-3.0234a.3087.3087,0,0,1,.3058-.2977Zm.053-1.9119h.4252a.2888.2888,0,0,1,.29.2976l-.0159.5763a.3089.3089,0,0,1-.3059.2976h-.4252a.289.289,0,0,1-.29-.2976l.0159-.5763A.3087.3087,0,0,1,12.4881,15.3462Z" fill="#003974" fill-rule="evenodd"/>
          <path d="M31.3666,17.2581h.4255a.2888.2888,0,0,1,.2894.2977l-.0836,3.0234a.309.309,0,0,1-.3059.2977h-.4255a.289.289,0,0,1-.2894-.2977l.0836-3.0234a.3086.3086,0,0,1,.3059-.2977Zm2.8293-.1646a1.6358,1.6358,0,0,1,1.7169,1.8955,1.7422,1.7422,0,0,1-1.8218,1.8958c-.9771,0-1.7558-.4822-1.717-1.8958a1.6923,1.6923,0,0,1,1.8219-1.8955Zm-.029,1.0425a.8176.8176,0,0,0-.9334.853c-.0176.6361.3838.8532.8864.8532a.8406.8406,0,0,0,.9334-.8532.7893.7893,0,0,0-.8864-.853Zm-5.19-2.75h.4252a.2891.2891,0,0,1,.29.2977l-.0348,1.2608h.7659a.289.289,0,0,1,.2894.2977l-.0119.4252a.309.309,0,0,1-.3059.2979h-.7659l-.038,1.3819c-.0382.6338.1965.4768.6659.227.1463-.0777.3061-.057.3339.1035l.0669.3863c.0394.2265-.0289.3566-.2888.4811-.6359.3044-1.8448.7809-1.8083-.614l.0513-1.9658h-.3517a.2891.2891,0,0,1-.29-.2979l.0117-.4252a.3089.3089,0,0,1,.3058-.2977h.35l.0329-1.2608a.3083.3083,0,0,1,.3058-.2977ZM27.67,18.08c.0417-1.5117-1.6458-1.3771-2.5733-1.0644a.5018.5018,0,0,0-.299.455l.0683.38c.0768.2506.2324.2829.4388.174.4731-.34,1.36-.5116,1.3346.4068l-.0037.1327c-2.0075-.385-2.583,1.39-1.9633,1.92a1.9043,1.9043,0,0,0,1.9086.1979c.1071.1757.5666.212.9269.1446.5973-.1123.4643-.5457.2917-.8456a.9463.9463,0,0,1-.1627-.7033L27.67,18.08Zm-1.0723,1.8624c-1.5687.2551-1.3683-.4431-.8385-.559a1.7555,1.7555,0,0,1,.8524.0629l-.0139.4961Zm-5.36.7035.0972-3.5206.0425-1.5418a.2118.2118,0,0,1,.0816-.161.2816.2816,0,0,1,.1868-.0666h1.3927a1.85,1.85,0,0,1,1.1441.2914,1.8,1.8,0,0,1,.172,2.0577c-.3291.5729-1.23.6948-1.9012.8671l-.0516,2.0129a.2611.2611,0,0,1-.1114.2052.4143.4143,0,0,1-.2619.0831h-.5145a.3008.3008,0,0,1-.1984-.0664.1945.1945,0,0,1-.0779-.161Zm1.0318-3.2819h.58c.3877,0,.6309-.1228.6426-.5437a.4423.4423,0,0,0-.49-.5159c-.3325-.0031-.7157-.0292-.7018.3158.0071.172-.0091.59-.0108.6431.0006-.0147-.0062.1007-.02.1007Zm9.15-2.0177h.4255a.2889.2889,0,0,1,.2894.2976l-.0159.5763a.3088.3088,0,0,1-.3058.2976H31.387a.2889.2889,0,0,1-.2894-.2976l.0159-.5763A.3087.3087,0,0,1,31.4193,15.3462Z" fill="#fff" fill-rule="evenodd"/>
        </g>
      </g>
    </g>
  </g>
</svg>