<?xml version="1.0" standalone="no"?>
<!DOCTYPE svg PUBLIC "-//W3C//DTD SVG 1.1//EN" "http://www.w3.org/Graphics/SVG/1.1/DTD/svg11.dtd">
<svg xmlns="http://www.w3.org/2000/svg" width="35.91400146484375" height="25.18440055847168" viewBox="0 0 35.914 25.1844">
  <g id="Camada_2" data-name="Camada 2">
    <g id="Camada_1-2" data-name="Camada 1">
      <path d="M2.6933,10.8085A.2467.2467,0,0,1,2.2,10.83c0-.0057-.0958-1.9755-.0708-3.0087.017-.6934-.2656-.66-.2912-.6551l0,0c-.0039.0006-1.4145.288-1.4575-.9138-.0329-.91.8005-1.5149,1.449-1.9851l.0148-.01c.0887-.0643.174-.1267.2647-.1964a.77.77,0,0,0,.3022-.8345A.2538.2538,0,0,1,2.4,3.1632,6.0142,6.0142,0,0,1,2.38,2.105a.8826.8826,0,0,1,.5443-.6225l.0011-.0008a3.5039,3.5039,0,0,1,1.08-.3249c.3586-.0394.5063.3124.5655.6651.0567-.0752.1236-.1636.2036-.2679a7.2187,7.2187,0,0,1,.9178-1.04A1.8179,1.8179,0,0,1,6.7987.0017,3.19,3.19,0,0,1,8.4626.6112L8.4745.62c.2523.1817,4.1732,3.0079,4.9924,3.8821a1.5949,1.5949,0,0,1,.4309.756.9668.9668,0,0,1-.0374.5383,1.0907,1.0907,0,0,1-.2824.415,1.6445,1.6445,0,0,1-.78.3886.3248.3248,0,0,0-.2591.46.239.239,0,0,1,.0167.0825l.31,2.78a1.6035,1.6035,0,0,1-1.6628,2.039l-.0193-.0012a3.8993,3.8993,0,0,1-1.9675-.7886,4.9686,4.9686,0,0,1-1.6793.8555c-.0669.0193-.1383.0386-.214.0573a3.9264,3.9264,0,0,1-2.2986-.068,2.69,2.69,0,0,1-.5179-.2631A20.1714,20.1714,0,0,1,1.89,13.542a104.0385,104.0385,0,0,1,24.6269-1.2436c.7319.1273.4949.8643-.0734.8121A92.7815,92.7815,0,0,0,.45,14.3164a.2473.2473,0,0,1-.1645-.4626,23.5129,23.5129,0,0,0,3.8333-2.4126,2.9668,2.9668,0,0,1-.7494-1.31c-.0151-.0518-.03-.1082-.0454-.17A4.63,4.63,0,0,1,3.1845,8.729a3.319,3.319,0,0,1,.5046-1.73,1.98,1.98,0,0,1,1.1494-.8762,1.4428,1.4428,0,0,1,.385-.0422,1.3768,1.3768,0,0,1,.5669.1357,1.4214,1.4214,0,0,1,.6531.6738,2.322,2.322,0,0,1,.2078,1.0851,4.8226,4.8226,0,0,1-.5335,1.9389,5.324,5.324,0,0,1-1.2195,1.5,2.1415,2.1415,0,0,0,.3014.1415,3.437,3.437,0,0,0,2.0063.05q.0919-.0225.1919-.0519a4.5035,4.5035,0,0,0,1.4381-.7115,4.3507,4.3507,0,0,1-.7671-1.0224,3.824,3.824,0,0,1-.4853-2.1736,2.24,2.24,0,0,1,.2086-.7438,1.79,1.79,0,0,1,.7121-.8207.9578.9578,0,0,1,.7109-.0915,1.2615,1.2615,0,0,1,.6237.413A3.2707,3.2707,0,0,1,10.5,8.1074a3.1418,3.1418,0,0,1-.6213,2.3956,3.58,3.58,0,0,1-.288.3319,3.388,3.388,0,0,0,1.64.6324c.1321.0017,1.3516-.021,1.1466-1.4814l-.31-2.7771a.7793.7793,0,0,1,.633-1.0927,1.1373,1.1373,0,0,0,.5406-.2648.6028.6028,0,0,0,.1567-.2262.4836.4836,0,0,0,.0176-.2682,1.12,1.12,0,0,0-.3073-.5164c-.7917-.845-4.6769-3.6448-4.92-3.82l-.0133-.0088A2.6792,2.6792,0,0,0,6.8225.495,1.3526,1.3526,0,0,0,6.018.8842a6.8761,6.8761,0,0,0-.85.97c-.3019.394-.48.6063-.5851.72A.247.247,0,0,1,4.11,2.46c0-.0022.0553-.824-.0513-.8124a2.95,2.95,0,0,0-.9071.2736c-.1545.08-.2712.1652-.2792.2378a5.368,5.368,0,0,0,.0179.9425,1.2725,1.2725,0,0,1-.4791,1.3519c-.0748.0578-.1729.1289-.2766.204l-.0136.0108c-.5553.4025-1.2688.92-1.2456,1.5673.0224.6174.866.4465.8683.4462l0,0,.0017,0c.0028-.0006.9119-.1937.879,1.1531-.0253,1.0383.0683,2.9679.0686,2.9735ZM6.1374,3.8163a.6663.6663,0,0,0-1.02.0162.9325.9325,0,0,0,.019,1.2047.666.666,0,0,0,1.02-.0159.9332.9332,0,0,0-.019-1.205Zm-.52-.6145a1.0641,1.0641,0,0,0-.79.38,1.31,1.31,0,0,0,.0269,1.7161,1.0459,1.0459,0,0,0,1.5914-.0252,1.31,1.31,0,0,0-.0272-1.7158,1.0647,1.0647,0,0,0-.8014-.3546ZM9.57,3.9181a.5446.5446,0,0,0-.8362-.199A.8711.8711,0,0,0,8.4816,4.78a.5685.5685,0,0,0,.3691.3038h0a.5681.5681,0,0,0,.4668-.1051.8338.8338,0,0,0,.3127-.485l0-.0009a.8374.8374,0,0,0-.06-.5751ZM9.29,3.24a.9483.9483,0,0,0-.7815.1687A1.2512,1.2512,0,0,0,8.14,4.9556a.95.95,0,0,0,.6135.5008l.0173.004a.95.95,0,0,0,.773-.17,1.2214,1.2214,0,0,0,.4592-.7l.0039-.0165a1.22,1.22,0,0,0-.0949-.8308A.9491.9491,0,0,0,9.29,3.24ZM8.5034,9.584a3.8549,3.8549,0,0,0,.7067.932,3.138,3.138,0,0,0,.2747-.3132,2.6634,2.6634,0,0,0,.5247-2.03,2.79,2.79,0,0,0-.5431-1.4451.7818.7818,0,0,0-.3759-.2591.4742.4742,0,0,0-.3515.0474,1.3165,1.3165,0,0,0-.5034.6037,1.7408,1.7408,0,0,0-.1593.58A3.3225,3.3225,0,0,0,8.5034,9.584Zm-4.6595.4084a2.4617,2.4617,0,0,0,.6539,1.1251,4.9833,4.9833,0,0,0,1.1744-1.42,4.3374,4.3374,0,0,0,.4842-1.7377,1.8279,1.8279,0,0,0-.1571-.8538.93.93,0,0,0-.4255-.4442.8865.8865,0,0,0-.3656-.0864.9389.9389,0,0,0-.2529.0275,1.4906,1.4906,0,0,0-.8521.6673,2.8286,2.8286,0,0,0-.4238,1.4745,4.1219,4.1219,0,0,0,.1245,1.1Q3.8213,9.9153,3.8439,9.9924Z" fill="#fdb913" fill-rule="evenodd"/>
      <g>
        <path d="M11.0433,15.1779h.4252a.289.289,0,0,1,.29.2976l-.1412,5.1038a.3085.3085,0,0,1-.3058.2976H10.886a.2887.2887,0,0,1-.29-.2976l.1411-5.1038a.3087.3087,0,0,1,.3059-.2976ZM1.2351,16.4653l-.0334,1.2085H2.3432a.1943.1943,0,0,1,.15.0691.25.25,0,0,1,.0595.18L2.5391,18.4a.2674.2674,0,0,1-.0692.1749.2.2,0,0,1-.1536.0748H1.1748l-.0332,1.2028H2.6638a.1948.1948,0,0,1,.15.0694.2481.2481,0,0,1,.0593.18l-.013.4768a.2684.2684,0,0,1-.0692.1749.2.2,0,0,1-.1539.0748H.2093a.1888.1888,0,0,1-.15-.0748A.255.255,0,0,1,0,20.5793l0-.0165.0128-.46.1072-3.8812.0133-.4825a.2539.2539,0,0,1,.0691-.1749.2064.2064,0,0,1,.1537-.0691H2.7843a.1945.1945,0,0,1,.15.0691.2421.2421,0,0,1,.0593.1749l-.0134.4825a.2541.2541,0,0,1-.0714.1692.2034.2034,0,0,1-.1514.0748Zm9.1395,2.1765-.1273,4.61a1.8441,1.8441,0,0,1-1.8031,1.9326,1.71,1.71,0,0,1-1.707-1.78,1.8422,1.8422,0,0,1,1.1951-1.6708c.4269-.1579.4164.0335.4271.2152l.0247.4164c-.0054.19.0459.2149-.2531.3926a.7792.7792,0,0,0-.38.6466.7381.7381,0,0,0,.7215.7526c.386,0,.737-.2869.7591-1.0911L9.2966,20.72a1.7914,1.7914,0,0,1-.85.216,1.8631,1.8631,0,0,1-1.804-1.9857,1.991,1.991,0,0,1,1.9137-1.9854,1.6434,1.6434,0,0,1,1.8181,1.6767ZM8.6528,17.991a.9324.9324,0,0,0-.8651.9535.8727.8727,0,0,0,.8124.9536.9323.9323,0,0,0,.8651-.9536.8721.8721,0,0,0-.8124-.9535ZM3.6179,16.8755h.4252a.2885.2885,0,0,1,.2866.2478l-.0017.2721c.3175-.4068,2.1164-.6316,2.0733.93l-.0621,2.2539a.3089.3089,0,0,1-.3061.2976H5.6079a.289.289,0,0,1-.29-.2976l.0545-1.9775c.0184-.6661-1.061-.6746-1.08,0l-.0544,1.9775a.3089.3089,0,0,1-.3061.2976H3.5074a.2887.2887,0,0,1-.2894-.2976l.0941-3.4061a.3085.3085,0,0,1,.3058-.2977Zm9.7779,3.26a.4373.4373,0,0,1,.0989-.233l.1976-.2661a1.483,1.483,0,0,1,.136-.18.1477.1477,0,0,1,.1069-.0527.2569.2569,0,0,1,.1122.0334,1.845,1.845,0,0,1,.1823.1108q.0149.0111.2568.1942a.8947.8947,0,0,0,.6129.1607.2862.2862,0,0,0,.1947-.0748.2372.2372,0,0,0,.0743-.1692.3157.3157,0,0,0-.1168-.2441.5586.5586,0,0,0-.3461-.1275h.0051a2.3067,2.3067,0,0,1-.6976-.2523.8916.8916,0,0,1-.35-.3631,1.3147,1.3147,0,0,1-.1142-.5216,1.2449,1.2449,0,0,1,.6488-1.1452,1.4427,1.4427,0,0,1,.7146-.1749,2.1887,2.1887,0,0,1,1.0389.2857,1.0444,1.0444,0,0,1,.3138.2747.2164.2164,0,0,1,.0681.144.24.24,0,0,1-.042.1193,1.6057,1.6057,0,0,1-.136.1746L16.2012,18a.9854.9854,0,0,1-.1139.1137.1241.1241,0,0,1-.0754.0306.1908.1908,0,0,1-.0916-.0335c-.0371-.0221-.0734-.0453-.1086-.0691l-.0935-.0638a1.12,1.12,0,0,0-.6154-.2441.3822.3822,0,0,0-.2622.0859.2778.2778,0,0,0-.1009.2081.3017.3017,0,0,0,.0864.2191.4374.4374,0,0,0,.2588.1247,1.9681,1.9681,0,0,1,1.0851.4714,1.0513,1.0513,0,0,1,.3408.7988,1.2213,1.2213,0,0,1-.2107.6407,1.5149,1.5149,0,0,1-.5487.4991,1.5669,1.5669,0,0,1-.7691.1914,2.24,2.24,0,0,1-1.3691-.5216q-.2216-.1662-.2174-.3161Zm3.8608-4.9577h.4254a.2888.2888,0,0,1,.2894.2976L17.92,17.324l-.0005.0714c.3174-.4068,2.1163-.6316,2.0732.93l-.0621,2.2539a.3089.3089,0,0,1-.3061.2976H19.2a.2889.2889,0,0,1-.2894-.2976l.0544-1.9775c.0184-.6661-1.061-.6746-1.08,0l-.0544,1.9775-.0006.0076,0,.0077-.0008.0073-.0009.0077h0l-.0011.0074h0l-.0012.0073h0l-.0014.0074-.0017.0074h0l-.0017.0071-.002.0071v0l-.0019.0068v0l-.0026.0068h0l-.0023.0071h0l-.0085.02h0l-.0062.0131h0l-.0108.019v0a.313.313,0,0,1-.1131.11h0l-.02.01h0l-.0134.006h0l-.02.0079h0l-.0071.0023h0l-.007.002h0l-.0071.002h0l-.0074.0017-.0071.0017h0l-.0074.0014-.0073.0011h0l-.0074.0011h0l-.0076.0009h0l-.0074.0006-.0077,0-.0076,0h-.4405l-.0077,0-.0076,0-.0074-.0006h0l-.0074-.0009h0l-.0073-.0011h0l-.0074-.0011-.0074-.0014h0l-.0071-.0017-.0071-.0017h0l-.007-.002h0l-.0068-.002h0l-.0068-.0023h0l-.0068-.0025h0l-.0066-.0026h0l-.0068-.0028h0l-.0065-.0029h0l-.0065-.0031h0l-.0062-.0031h0l-.0063-.0034h0l-.0062-.0037-.006-.0034h0L16.94,20.83l-.0057-.004h0l-.0057-.004h0l-.0057-.0042h0l-.0054-.0046h0l-.0056-.0045-.0051-.0045-.0054-.0049h0l-.0051-.0048h0l-.0049-.0048h0l-.0051-.0054h0l-.0045-.0051-.0045-.0054-.0046-.0054h0l-.0042-.0056h0l-.004-.0057h0l-.0042-.0057-.004-.0059h0l-.0037-.006h0l-.0037-.0059-.0034-.0063-.0034-.0065h0l-.0031-.0062h0l-.0031-.0065-.0028-.0066h0l-.0029-.0065-.0025-.0068-.0023-.0068h0l-.0022-.0068-.0023-.0071-.0017-.0068-.0017-.0071-.0017-.0073-.0014-.0071-.0012-.0074-.0011-.0074-.0009-.0073,0-.0074-.0006-.0077v-.0073l0-.0077,0-.0076.0938-3.4061.0471-1.6977a.3086.3086,0,0,1,.3059-.2976Zm-4.8215,2.08h.4255a.2886.2886,0,0,1,.2894.2976l-.0836,3.0235a.3086.3086,0,0,1-.3059.2976h-.4252a.2888.2888,0,0,1-.2894-.2976l.0833-3.0235a.3088.3088,0,0,1,.3059-.2976Zm.053-1.912h.4252a.2888.2888,0,0,1,.2894.2977l-.0158.5763a.309.309,0,0,1-.3059.2976h-.4252a.289.289,0,0,1-.29-.2976l.0159-.5763A.3088.3088,0,0,1,12.4881,15.3462Z" fill="#fff" fill-rule="evenodd"/>
        <path d="M31.3666,17.2582h.4254a.2888.2888,0,0,1,.2895.2976l-.0837,3.0235a.3089.3089,0,0,1-.3058.2976h-.4255a.2889.2889,0,0,1-.2894-.2976l.0836-3.0235a.3085.3085,0,0,1,.3059-.2976Zm2.8292-.1647a1.6359,1.6359,0,0,1,1.717,1.8955,1.7422,1.7422,0,0,1-1.8219,1.8958c-.9771,0-1.7557-.4821-1.7169-1.8958a1.6923,1.6923,0,0,1,1.8218-1.8955Zm-.0289,1.0426a.8174.8174,0,0,0-.9334.8529c-.0176.6361.3838.8533.8864.8533a.8407.8407,0,0,0,.9334-.8533.7893.7893,0,0,0-.8864-.8529Zm-5.19-2.75h.4252a.2892.2892,0,0,1,.29.2976l-.0349,1.2609h.7659a.289.289,0,0,1,.29.2976l-.0119.4252a.309.309,0,0,1-.3059.2979h-.7659l-.038,1.3819c-.0383.6338.1964.4768.6659.2271.1462-.0777.3061-.057.3339.1034l.0669.3864c.0394.2265-.0289.3566-.2889.481-.6358.3045-1.8448.781-1.8082-.6139l.0513-1.9659h-.3518a.289.289,0,0,1-.2894-.2979l.0116-.4252a.309.309,0,0,1,.3059-.2976h.35l.0328-1.2609a.3084.3084,0,0,1,.3059-.2976ZM27.67,18.08c.0417-1.5118-1.6458-1.3771-2.5733-1.0644a.5014.5014,0,0,0-.299.4549l.0683.38c.0768.2506.2324.2829.4388.1741.4731-.34,1.36-.5117,1.3345.4067l-.0037.1327c-2.0075-.3849-2.5829,1.39-1.9632,1.92a1.9043,1.9043,0,0,0,1.9085.1979c.1072.1757.5667.212.927.1445.5972-.1122.4643-.5457.2916-.8456a.9468.9468,0,0,1-.1627-.7032L27.67,18.08Zm-1.0723,1.8623c-1.5687.2551-1.3683-.443-.8385-.559a1.755,1.755,0,0,1,.8523.063l-.0138.496Zm-5.36.7036.0973-3.5206.0425-1.5418a.2118.2118,0,0,1,.0816-.161.2816.2816,0,0,1,.1868-.0666h1.3927a1.8494,1.8494,0,0,1,1.144.2914,1.7994,1.7994,0,0,1,.1721,2.0576c-.3291.5729-1.23.6948-1.9012.8672l-.0516,2.0128a.2613.2613,0,0,1-.1114.2053.4149.4149,0,0,1-.2619.083h-.5145a.3013.3013,0,0,1-.1984-.0663.1945.1945,0,0,1-.078-.161Zm1.0318-3.282h.58c.3878,0,.631-.1227.6426-.5437a.4422.4422,0,0,0-.49-.5159c-.3325-.0031-.7157-.0292-.7018.3158.007.1721-.0091.59-.0108.6432,0-.0147-.0063.1006-.02.1006Zm9.15-2.0177h.4255a.289.289,0,0,1,.2894.2977l-.0159.5763a.3089.3089,0,0,1-.3058.2976H31.387a.2889.2889,0,0,1-.2894-.2976l.0158-.5763A.3088.3088,0,0,1,31.4193,15.3462Z" fill="#fdb913" fill-rule="evenodd"/>
      </g>
    </g>
  </g>
</svg>